<svg xmlns="http://www.w3.org/2000/svg" width="162.541" height="76.706" viewBox="0 0 162.541 76.706">
  <path id="Union_1" data-name="Union 1" d="M-3460.756,76.717a8.892,8.892,0,0,1-4.495-2.659,10.966,10.966,0,0,1-2.419-4.546l-.176-.84-.028-.288,6.923-1.859.074.276a6.244,6.244,0,0,0,2,3.254,4.239,4.239,0,0,0,4.028.544,6.4,6.4,0,0,0,3.728-2.5,4.51,4.51,0,0,0,.746-3.919,2.828,2.828,0,0,0-1.575-1.941,5.4,5.4,0,0,0-2.7-.456l-3.98.183a14.316,14.316,0,0,1-5.57-.893q-2.751-1.01-3.721-4.639a10.451,10.451,0,0,1,.149-6.147,11.938,11.938,0,0,1,3.523-5.206,15.007,15.007,0,0,1,6.145-3.2,11.851,11.851,0,0,1,6.334-.2,8.8,8.8,0,0,1,4.393,2.736,11.423,11.423,0,0,1,2.367,4.535l.049.184-7.243,1.946-.037-.139A6,6,0,0,0-3453.962,48q-1.239-1.145-3.806-.455a5.529,5.529,0,0,0-3.334,2.324,4.412,4.412,0,0,0-.606,3.708,2.711,2.711,0,0,0,1.615,1.906,6.372,6.372,0,0,0,2.846.442l3.935-.17a12.974,12.974,0,0,1,5.906,1.049,6.316,6.316,0,0,1,3.522,4.447,10.591,10.591,0,0,1-.221,6.339,12.866,12.866,0,0,1-3.787,5.5,15.874,15.874,0,0,1-6.466,3.387,14.932,14.932,0,0,1-3.857.555A9.921,9.921,0,0,1-3460.756,76.717Zm19.509-38.679,21.226-5.7.57,5.806-14.854,3.989.792,8.11,12.653-3.4.514,5.23-12.653,3.4.882,8.627,14.808-3.977.615,5.794-21.226,5.7Zm25.948-6.969,9.444-2.536,9.1,18.782.138-.037,5.113-22.6,9.444-2.537,3.326,33.581-6.234,1.674-2.362-24.088-.229.061-5.707,26.255-4.126,1.109-10.475-21.91-.229.062,2.362,24.088-6.235,1.675Zm-117.381,24.966a8.9,8.9,0,0,1-4.495-2.66,10.983,10.983,0,0,1-2.419-4.546l-.176-.84-.028-.288,6.923-1.859.074.275a6.248,6.248,0,0,0,2,3.255,4.244,4.244,0,0,0,4.028.544,6.406,6.406,0,0,0,3.729-2.5,4.512,4.512,0,0,0,.745-3.919,2.824,2.824,0,0,0-1.575-1.94,5.383,5.383,0,0,0-2.7-.456l-3.98.182a14.3,14.3,0,0,1-5.57-.893q-2.751-1.008-3.721-4.639a10.452,10.452,0,0,1,.149-6.148,11.956,11.956,0,0,1,3.522-5.206,15,15,0,0,1,6.145-3.2,11.845,11.845,0,0,1,6.335-.2,8.8,8.8,0,0,1,4.392,2.736,11.429,11.429,0,0,1,2.367,4.535l.049.185-7.243,1.945-.037-.138a6.006,6.006,0,0,0-1.718-2.937q-1.239-1.145-3.807-.455a5.533,5.533,0,0,0-3.334,2.324,4.412,4.412,0,0,0-.6,3.709,2.706,2.706,0,0,0,1.615,1.905,6.378,6.378,0,0,0,2.845.443l3.935-.171a12.966,12.966,0,0,1,5.907,1.049,6.321,6.321,0,0,1,3.522,4.446,10.591,10.591,0,0,1-.222,6.339,12.872,12.872,0,0,1-3.787,5.5,15.883,15.883,0,0,1-6.466,3.386,14.91,14.91,0,0,1-3.857.555A9.919,9.919,0,0,1-3532.679,56.035Zm19.509-38.679,21.226-5.7.57,5.806-14.854,3.99.792,8.11,12.653-3.4.514,5.23-12.653,3.4.882,8.628,14.808-3.977.616,5.793-21.227,5.7Zm25.948-6.969,9.444-2.536,9.1,18.782.137-.037,5.113-22.6,9.444-2.536,3.326,33.58-6.234,1.675-2.362-24.089-.229.061-5.707,26.256-4.125,1.108-10.476-21.909-.229.061,2.362,24.089-6.235,1.674Z" transform="translate(3540.737 -0.825)" fill="#00ff89" stroke="rgba(0,0,0,0)" stroke-miterlimit="10" stroke-width="1"/>
</svg>
